<svg width="124" height="20" viewBox="0 0 124 20" fill="none" xmlns="http://www.w3.org/2000/svg">
<path fill-rule="evenodd" clip-rule="evenodd" d="M71.4182 3.60364V1.11541C71.4182 0.738842 71.7409 0.486206 72.1282 0.486206H84.6972C85.1006 0.486206 85.4233 0.743609 85.4233 1.11541V3.24613C85.4179 3.60364 85.0791 4.07078 84.4767 4.80962L77.9636 13.0513C80.3838 12.9988 82.9385 13.3182 85.1329 14.4145C85.6276 14.6624 85.7621 15.0247 85.7998 15.3822V18.0373C85.7998 18.3995 85.348 18.8238 84.8747 18.6045C81.0077 16.8074 75.8715 16.612 71.5957 18.6236C71.1601 18.8333 70.7029 18.4138 70.7029 18.0516V15.53C70.7029 15.1248 70.7083 14.4336 71.1655 13.8187L78.7112 4.22808H72.1443C71.7409 4.22808 71.4182 3.97544 71.4182 3.60364Z" fill="black"/>
<path fill-rule="evenodd" clip-rule="evenodd" d="M25.5684 19.1289H21.7444C21.3787 19.105 21.0883 18.8619 21.0614 18.5521V1.15835C21.0614 0.81038 21.3895 0.533908 21.7982 0.533908H25.364C25.7351 0.548199 26.0309 0.800843 26.0578 1.11545V3.38917H26.1277C27.0582 1.19171 28.8061 0.16687 31.1618 0.16687C33.5551 0.16687 35.0503 1.19171 36.1259 3.38917C37.051 1.19171 39.1539 0.16687 41.4074 0.16687C43.0101 0.16687 44.7635 0.753176 45.8337 2.06879C47.0438 3.53217 46.7965 5.65812 46.7965 7.52191L46.7911 18.4997C46.7911 18.8476 46.463 19.1289 46.0543 19.1289H42.2357C41.8538 19.105 41.5473 18.8333 41.5473 18.4997V9.28083C41.5473 8.54675 41.6225 6.71634 41.4397 6.02039C41.1546 4.85255 40.2995 4.52365 39.1916 4.52365C38.2665 4.52365 37.2984 5.07182 36.9058 5.9489C36.5132 6.82597 36.5508 8.29412 36.5508 9.28083V18.4997C36.5508 18.8476 36.2228 19.1289 35.814 19.1289H31.9954C31.6082 19.105 31.307 18.8333 31.307 18.4997L31.3016 9.28083C31.3016 7.34078 31.662 4.48551 28.9459 4.48551C26.1976 4.48551 26.3052 7.26927 26.3052 9.28083V18.4997C26.3052 18.8476 25.9771 19.1289 25.5684 19.1289Z" fill="black"/>
<path fill-rule="evenodd" clip-rule="evenodd" d="M96.2442 0.16687C101.918 0.16687 104.989 4.48551 104.989 9.97677C104.989 15.2821 101.596 19.4911 96.2442 19.4911C90.6723 19.4911 87.639 15.1725 87.639 9.79087C87.639 4.37588 90.71 0.16687 96.2442 0.16687ZM96.2765 3.71807C93.4583 3.71807 93.2808 7.1215 93.2808 9.24269C93.2808 11.3686 93.2431 15.9066 96.2442 15.9066C99.2077 15.9066 99.3475 12.2457 99.3475 10.0149C99.3475 8.54675 99.2776 6.7926 98.7774 5.40072C98.3471 4.18998 97.492 3.71807 96.2765 3.71807Z" fill="black"/>
<path fill-rule="evenodd" clip-rule="evenodd" d="M112.347 19.1289H108.539C108.157 19.105 107.851 18.8333 107.851 18.4997L107.845 1.10115C107.878 0.781776 108.195 0.533908 108.582 0.533908H112.126C112.46 0.548199 112.734 0.748411 112.809 1.02011V3.67994H112.879C113.95 1.30135 115.45 0.16687 118.091 0.16687C119.807 0.16687 121.479 0.715043 122.555 2.21656C123.555 3.60844 123.555 5.9489 123.555 7.63154V18.5807C123.512 18.8858 123.195 19.1289 122.818 19.1289H118.984C118.634 19.105 118.344 18.8762 118.306 18.5807V9.13306C118.306 7.23114 118.553 4.44738 115.913 4.44738C114.982 4.44738 114.127 5.00032 113.702 5.83926C113.164 6.90224 113.095 7.96045 113.095 9.13306V18.4997C113.089 18.8476 112.756 19.1289 112.347 19.1289Z" fill="black"/>
<path fill-rule="evenodd" clip-rule="evenodd" d="M61.3985 10.8204C61.3985 12.1408 61.4362 13.2419 60.6832 14.4146C60.0755 15.3679 59.1074 15.9542 58.0371 15.9542C56.5688 15.9542 55.7083 14.9627 55.7083 13.4993C55.7083 10.6107 58.6287 10.0864 61.3985 10.0864V10.8204ZM65.2548 19.0812C65.002 19.2814 64.6363 19.2957 64.3512 19.1622C63.0819 18.2279 62.8507 17.7942 62.1569 16.9028C60.0593 18.7999 58.5696 19.3672 55.8535 19.3672C52.6319 19.3672 50.131 17.6083 50.131 14.0857C50.131 11.3353 51.8091 9.46193 54.2078 8.54673C56.2838 7.73638 59.1827 7.59338 61.3985 7.36935V6.93081C61.3985 6.12523 61.4685 5.17189 60.9306 4.47595C60.4681 3.85151 59.5753 3.5941 58.7847 3.5941C57.3272 3.5941 56.031 4.25668 55.7137 5.62949C55.6492 5.93456 55.3964 6.23487 55.0468 6.24917L51.3412 5.89643C51.0292 5.83446 50.6796 5.61042 50.7711 5.18619C51.6208 1.20122 55.6868 0 59.3225 0C61.1834 0 63.6144 0.438539 65.0827 1.68742C66.9435 3.22707 66.7661 5.28152 66.7661 7.51711V12.7986C66.7661 14.386 67.5083 15.0819 68.2074 15.9399C68.4495 16.245 68.5032 16.612 68.1913 16.8408C67.4114 17.4176 66.0238 18.4901 65.2601 19.0907L65.2548 19.0812Z" fill="black"/>
<path fill-rule="evenodd" clip-rule="evenodd" d="M11.2675 10.8204C11.2675 12.1408 11.3051 13.2419 10.5522 14.4145C9.94443 15.3679 8.98172 15.9542 7.90606 15.9542C6.43779 15.9542 5.58265 14.9627 5.58265 13.4993C5.58265 10.6107 8.50305 10.0864 11.2675 10.0864V10.8204ZM15.1237 19.0812C14.8709 19.2814 14.5052 19.2957 14.2202 19.1622C12.9509 18.2279 12.725 17.7941 12.0258 16.9028C9.92829 18.7999 8.44389 19.3672 5.72248 19.3672C2.50627 19.3672 0 17.6082 0 14.0856C0 11.3352 1.6834 9.46193 4.07673 8.54672C6.15275 7.73638 9.05164 7.59338 11.2675 7.36934V6.9308C11.2675 6.12523 11.3374 5.17188 10.805 4.47595C10.337 3.8515 9.44425 3.5941 8.65902 3.5941C7.20151 3.5941 5.89997 4.25668 5.58265 5.62949C5.51811 5.93456 5.26533 6.23486 4.92112 6.24916L1.21011 5.89642C0.898171 5.83446 0.553961 5.61042 0.640014 5.18619C1.49516 1.20122 5.55576 0 9.19147 0C11.0524 0 13.4833 0.438539 14.9516 1.68742C16.8125 3.22707 16.635 5.28152 16.635 7.51711V12.7986C16.635 14.3859 17.3772 15.0819 18.0764 15.9399C18.3238 16.245 18.3776 16.612 18.0656 16.8408C17.2858 17.4176 15.8982 18.4901 15.1345 19.0907L15.1237 19.0812Z" fill="black"/>
</svg>
