<svg width="126" height="28" viewBox="0 0 126 28" fill="none" xmlns="http://www.w3.org/2000/svg">
<path fill-rule="evenodd" clip-rule="evenodd" d="M125.59 21.5633C120.335 29.4606 112.011 27.1691 109.512 25.3749C108.448 26.0147 106.582 27.417 104.095 27.255C98.797 26.9104 96.8999 20.2007 96.8999 20.2007C96.938 20.2275 95.3218 20.6949 94.4484 20.6866C94.4372 22.6542 92.5181 27.3546 87.3387 27.2945C81.5268 27.2273 80.3452 19.5531 80.3452 19.5531C80.3452 19.5531 79.7669 20.2649 77.5677 20.9739C77.6785 19.4622 77.5975 27.0644 70.6317 27.1761C65.1247 27.2646 63.6382 19.4348 63.6382 19.4348C63.6382 19.4348 62.6828 20.3143 60.8314 20.6194C60.949 19.0831 60.7577 27.2019 53.791 27.1761C49.083 27.1588 47.4742 22.353 47.5993 21.686C47.759 20.8359 46.0082 27.2957 41.435 27.195C39.5478 27.1459 38.1409 25.9349 37.258 24.3204C36.0762 25.5189 34.3603 27.195 32.4354 27.195C28.9801 27.195 27.4568 24.6337 27.7148 17.3179C27.7368 16.4502 27.6661 16.109 26.6929 15.9792C26.1087 15.8928 25.5105 15.7292 24.8775 15.643C24.6747 16.243 22.954 26.9998 17.0371 27.204C15.0521 27.2725 13.9667 25.7485 13.0753 24.6174C11.709 26.2194 9.90525 27.255 7.33572 27.255C2.98313 27.255 0.0175781 24.1365 0.0175781 20.2895C0.0175781 16.4425 2.98313 13.3242 7.33572 13.3242C8.1053 13.3242 8.32134 13.422 9.0244 13.6038C7.57853 1.93646 10.9931 0.113027 13.9801 0.113027C16.8478 0.113027 21.7469 6.01204 14.8534 20.9751C16.3839 25.4381 19.6833 25.1857 21.2688 15.9982C21.5915 14.1307 20.7287 11.6105 22.0708 11.2588C24.5241 10.616 24.7844 12.5446 25.9347 12.866C27.151 13.2056 27.8609 13.1724 29.0285 13.3885C31.0238 13.7339 31.8024 14.6838 31.5593 16.7996C31.2674 19.4767 30.7567 23.3732 32.3137 23.8481C33.4365 24.1931 35.4865 22.1293 35.8463 21.0001C36.2059 19.871 36.281 19.4845 36.313 18.6563C36.3616 16.8861 36.4227 15.5886 36.7633 14.2499C36.909 13.7319 37.0752 13.3888 37.7365 13.3654C38.2806 13.3531 39.2756 13.2079 39.7137 13.51C40.2975 13.8988 40.2245 14.2933 40.1575 15.3316C39.4785 30.1353 44.7045 22.7452 46.2627 16.8279C45.7078 10.1369 46.0888 0.235551 50.8196 0.0694879C53.28 -0.0168743 54.3677 1.73006 54.4874 3.03399C54.8258 6.71676 52.9302 12.8172 50.4372 16.9197C49.0124 25.2907 56.6668 26.9459 57.8909 20.2642C55.8882 19.4202 53.7239 16.0044 55.4851 14.3397C56.4734 13.4055 60.5871 14.7476 60.6545 17.6748C62.6724 17.1965 62.9418 16.1867 62.9698 16.354C62.4151 9.66298 62.9295 0.235638 67.6607 0.0695734C70.1208 -0.0167888 71.2084 1.73015 71.328 3.03407C71.6664 6.71683 69.7708 12.8173 67.2781 16.9199C65.8531 25.2907 73.5078 26.946 74.7315 20.2643C73.2488 20.0107 70.1188 16.3775 71.9248 14.3398C72.8899 13.2509 76.9886 15.5154 77.4474 17.7717C79.3859 17.2855 79.6492 16.3078 79.677 16.4724C79.1221 9.78156 79.6366 0.354218 84.3678 0.188154C86.8279 0.101792 87.9155 1.84873 88.0351 3.15265C88.3735 6.83541 86.4779 12.936 83.9849 17.0385C82.5602 25.4095 90.2147 27.0644 91.4388 20.3827C89.4012 20.082 86.5054 16.2458 88.836 14.2833C89.7672 13.4992 93.3253 15.5346 94.1582 17.8568C95.3154 17.8173 96.0357 17.4636 96.1901 17.4279C94.3427 9.57305 95.718 0.148361 100.807 0.0696886C103.558 0.0272078 106.248 1.38773 105.067 8.8606C103.94 15.9906 99.8902 18.9827 99.8996 19.0285C100.135 19.8827 102.214 27.0312 107.447 23.2594C107.176 22.7157 106.905 22.1603 106.753 21.4874C105.886 17.5677 107.59 13.1404 112.221 12.4249C114.874 12.0149 117.374 13.1598 117.769 15.741C118.419 19.9645 114.116 23.0233 112.48 23.6868C111.747 23.3178 119.123 27.5107 123.501 19.108C123.755 18.6282 124.061 18.6689 124.457 18.9162C124.737 19.0908 126.332 20.4299 125.59 21.5633ZM10.5018 19.2517C10.2791 18.6615 9.82198 17.361 9.66033 16.7976C8.7701 16.1114 8.13467 16 6.99197 16C4.45254 16 2.95788 18.0809 2.95788 20.3247C2.95788 22.5684 4.58621 24.6496 7.12565 24.6496C9.32637 24.6496 11.0013 23.3235 11.5123 21.4462C11.1547 20.7143 10.7998 20.0417 10.5018 19.2517ZM13.9179 3.20145C12.1335 3.20145 11.5282 6.97401 11.6457 10.1924C11.7496 13.0378 12.6467 15.5428 13.1121 16.6653C13.2302 16.8059 13.2083 16.7144 13.3138 16.8636C16.412 10.8472 15.1269 3.20145 13.9179 3.20145ZM51.0745 3.31996C48.7683 3.08554 48.7832 11.6001 49.0695 13.51C50.2672 11.8118 52.3479 3.77721 51.0745 3.31996ZM67.9151 3.31996C65.6089 3.08554 65.6238 11.6001 65.9102 13.51C67.1078 11.8118 69.1886 3.77721 67.9151 3.31996ZM84.6223 3.43842C82.316 3.204 82.3309 11.7186 82.6173 13.6287C83.8149 11.9303 85.8957 3.89564 84.6223 3.43842ZM101.062 2.82153C97.4688 3.46102 98.3055 14.0789 98.8513 15.9412C103.084 10.789 103.171 2.628 101.062 2.82153ZM114.528 16.0903C114.346 15.4133 113.432 15.0515 112.802 15.1407C110.997 15.359 109.248 17.3505 109.925 20.3824C110.076 21.0576 110.453 21.6792 110.447 21.6585C114.485 19.2577 114.828 17.3659 114.528 16.0903ZM38.4437 11.0218C37.9281 11.0219 37.424 10.8864 36.9953 10.6326C36.5665 10.3787 36.2322 10.0179 36.0348 9.59571C35.8374 9.17351 35.7857 8.7089 35.8864 8.26067C35.9868 7.81243 36.2352 7.40069 36.5998 7.07751C36.9643 6.75433 37.4288 6.53425 37.9345 6.44507C38.4403 6.3559 38.9645 6.40164 39.4409 6.57654C39.9174 6.75143 40.3245 7.04761 40.6109 7.42761C40.8974 7.80761 41.0503 8.25437 41.0503 8.71137C41.0503 9.01476 40.9829 9.31519 40.8519 9.59549C40.721 9.8758 40.529 10.1305 40.2869 10.345C40.0448 10.5596 39.7575 10.7298 39.4413 10.8459C39.125 10.962 38.7861 11.0218 38.4437 11.0218Z" fill="#0D0C22"/>
</svg>
