<svg width="129" height="27" viewBox="0 0 129 27" fill="none" xmlns="http://www.w3.org/2000/svg">
<path d="M14.1807 0.106445V9.19418H4.76376V0.106445H0.292969V21.7997H4.76376V13.0071H14.1807V21.7997H18.6515V0.106445H14.1807Z" fill="#33475B"/>
<path d="M32.9597 14.7869C32.9597 15.6563 32.57 16.4901 31.8764 17.1049C31.1828 17.7196 30.242 18.065 29.2611 18.065C28.2801 18.065 27.3394 17.7196 26.6457 17.1049C25.9521 16.4901 25.5624 15.6563 25.5624 14.7869V5.49533H21.3216V14.7869C21.3216 16.6513 22.1573 18.4394 23.6448 19.7578C25.1323 21.0761 27.1498 21.8168 29.2534 21.8168C31.357 21.8168 33.3745 21.0761 34.862 19.7578C36.3495 18.4394 37.1852 16.6513 37.1852 14.7869V5.49533H32.9597V14.7869Z" fill="#33475B"/>
<path d="M64.3811 6.45293C64.3811 4.54841 65.8027 3.94463 67.3601 3.94463C68.6153 3.94463 70.2735 4.79108 71.3578 5.81809L74.1353 2.91762C72.7487 1.25578 69.9362 0.106465 67.634 0.106465C63.0339 0.106465 59.7066 2.4944 59.7066 6.45293C59.7066 13.7973 69.8354 11.4676 69.8354 15.5775C69.8354 16.8453 68.4466 17.9655 66.8563 17.9655C64.3482 17.9655 63.5356 16.8783 62.3834 15.729L59.3013 18.5693C61.2728 20.7145 63.7042 21.8036 66.6176 21.8036C70.9876 21.8036 74.5033 19.3866 74.5033 15.6086C74.5033 7.4547 64.3745 9.98823 64.3745 6.45293" fill="#33475B"/>
<path d="M127.042 18.3341C124.536 18.3341 123.824 17.3731 123.824 15.9015V9.38808H127.719V6.08768H123.824V1.7331L119.525 3.44349V16.7111C119.525 20.1047 122.166 21.815 125.789 21.815C126.358 21.8242 126.925 21.7839 127.485 21.6947L128.534 18.272C128.061 18.3011 127.518 18.3302 127.042 18.3302" fill="#33475B"/>
<path d="M49.1025 5.60488C47.0018 5.60488 45.5363 6.14459 44.1191 7.37739V0.236883H39.8717V13.4715C39.8717 18.4259 43.9132 21.8195 48.4541 21.8195C53.4922 21.8195 57.9236 18.3658 57.9236 13.7141C57.9236 9.12077 53.8449 5.60682 49.1025 5.60682V5.60488ZM49.0762 18.0318C48.1231 18.0318 47.1913 17.7813 46.3988 17.312C45.6063 16.8427 44.9887 16.1757 44.6239 15.3952C44.2592 14.6148 44.1638 13.756 44.3497 12.9275C44.5356 12.099 44.9946 11.3379 45.6686 10.7406C46.3425 10.1433 47.2012 9.73651 48.136 9.57171C49.0708 9.40691 50.0398 9.49149 50.9204 9.81476C51.8009 10.138 52.5536 10.6855 53.0831 11.3878C53.6126 12.0902 53.8952 12.916 53.8952 13.7607C53.8952 14.8935 53.3875 15.9799 52.4838 16.7809C51.58 17.5818 50.3543 18.0318 49.0762 18.0318Z" fill="#33475B"/>
<path d="M95.2208 13.5153C95.2208 8.8559 90.7982 5.40989 85.7513 5.40989C81.2104 5.40989 77.169 8.80348 77.169 13.758V27.0003H81.4163V19.8501C82.8314 21.0809 84.299 21.6226 86.3975 21.6226C91.1399 21.6226 95.2186 18.1106 95.2186 13.5153H95.2208ZM91.1991 13.4687C91.1991 14.3134 90.9164 15.1392 90.3869 15.8416C89.8574 16.544 89.1047 17.0914 88.2242 17.4147C87.3436 17.7379 86.3746 17.8225 85.4398 17.6577C84.505 17.4929 83.6464 17.0861 82.9724 16.4888C82.2984 15.8915 81.8395 15.1304 81.6535 14.3019C81.4676 13.4734 81.563 12.6146 81.9277 11.8342C82.2925 11.0538 82.9102 10.3867 83.7027 9.91739C84.4952 9.44808 85.4269 9.19758 86.38 9.19758C87.6581 9.19758 88.8838 9.64757 89.7876 10.4486C90.6913 11.2495 91.1991 12.3359 91.1991 13.4687Z" fill="#33475B"/>
</svg>
