<svg width="126" height="30" viewBox="0 0 126 30" fill="none" xmlns="http://www.w3.org/2000/svg">
<path d="M17.5012 28.0663C15.6171 28.3595 13.6999 28.4474 11.7166 28.6816L5.66728 12.9786V29.3555C3.78318 29.5313 2.06432 29.7656 0.279297 30V0H5.30389L12.1793 17.0217V0H17.5012V28.0663ZM27.9138 10.9863C29.9634 10.9863 33.1036 10.8984 34.9877 10.8984V15.5858C32.6407 15.5858 29.8972 15.5858 27.9138 15.6737V22.6465C31.0212 22.4708 34.1284 22.2362 37.2685 22.1483V26.6597L22.6248 27.6854V0H37.2685V4.68751H27.9138V10.9863ZM56.9366 4.68762H51.4494V26.2501C49.6644 26.2501 47.8793 26.2501 46.1607 26.3085V4.68762H40.6735V0H56.9368L56.9366 4.68762ZM65.531 10.6642H72.7703V15.3516H65.531V25.9864H60.3409V0H75.1172V4.68751H65.531V10.6642ZM83.7116 21.8848C86.7197 21.9432 89.7607 22.1486 92.7028 22.2948V26.9238C87.9759 26.66 83.2489 26.3966 78.4228 26.3085V0H83.7116V21.8848ZM97.1652 27.2461C98.851 27.3341 100.636 27.422 102.355 27.5975V0H97.1652V27.2461ZM125.527 0L118.817 14.2676L125.527 30C123.544 29.7656 121.56 29.4433 119.577 29.1503L115.776 20.4786L111.908 28.4474C109.991 28.1542 108.14 28.0663 106.223 27.8319L113.032 14.0917L106.884 0H112.569L116.04 7.88088L119.742 0H125.527V0Z" fill="#D81F26"/>
</svg>
