<svg width="146" height="35" viewBox="0 0 146 35" fill="none" xmlns="http://www.w3.org/2000/svg">
<path d="M51.525 28.7749V14.2199H51.8176L63.7715 28.7749H67.5333V7.40064H63.3536V21.919H63.061L51.1071 7.40064H47.3453V28.7749H51.525ZM79.3618 29.1049C84.879 29.1049 88.2646 25.9519 88.2646 20.6725C88.2646 15.4297 84.879 12.2401 79.3618 12.2401C73.8864 12.2401 70.4591 15.4297 70.4591 20.6725C70.5009 25.9519 73.8446 29.1049 79.3618 29.1049ZM79.3618 26.0252C76.436 26.0252 74.7642 24.0821 74.7642 20.6725C74.7642 17.2995 76.436 15.3198 79.3618 15.3198C82.2876 15.3198 83.9595 17.2995 83.9595 20.6725C83.9595 24.0821 82.2876 26.0252 79.3618 26.0252ZM92.0681 8.6105V12.68H89.1423V15.6131H92.0681V24.4487C92.0681 27.6017 93.74 28.8483 98.0033 28.8483C98.7974 28.8483 99.5916 28.7749 100.219 28.6649V25.8053C99.717 25.8419 99.3826 25.8786 98.7974 25.8786C97.042 25.8786 96.2478 25.182 96.2478 23.5688V15.6131H100.219V12.68H96.2478V8.6105H92.0681ZM102.726 28.7749H106.906V12.5701H102.726V28.7749ZM104.816 9.89369C106.196 9.89369 107.324 8.9038 107.324 7.69393C107.324 6.44741 106.196 5.45752 104.816 5.45752C103.437 5.45752 102.308 6.44741 102.308 7.69393C102.308 8.9038 103.437 9.89369 104.816 9.89369ZM118.358 29.1049C123.876 29.1049 127.261 25.9519 127.261 20.6725C127.261 15.4297 123.876 12.2401 118.358 12.2401C112.883 12.2401 109.456 15.4297 109.456 20.6725C109.456 25.9519 112.799 29.1049 118.358 29.1049ZM118.358 26.0252C115.433 26.0252 113.761 24.0821 113.761 20.6725C113.761 17.2995 115.433 15.3198 118.358 15.3198C121.242 15.3198 122.956 17.2995 122.956 20.6725C122.914 24.0821 121.242 26.0252 118.358 26.0252ZM129.727 28.7749H133.907V19.3526C133.907 16.9696 135.495 15.4664 137.961 15.4664C140.511 15.4664 141.681 16.7129 141.681 19.1693V28.7749H145.861V18.2894C145.861 14.4032 143.604 12.2401 139.508 12.2401C136.749 12.2401 134.91 13.34 134.032 15.1731H133.74V12.5701H129.685C129.727 12.5701 129.727 28.7749 129.727 28.7749Z" fill="black"/>
<path fill-rule="evenodd" clip-rule="evenodd" d="M7.26912 6.03259C8.48563 6.90239 8.92564 6.83372 11.2034 6.69638L32.6605 5.55191C33.1264 5.55191 32.7381 5.1399 32.5828 5.09412L29.011 2.82806C28.338 2.37028 27.4062 1.82093 25.672 1.95826L4.91376 3.30874C4.16315 3.37741 4.00785 3.72075 4.31844 3.97254L7.26912 6.03259ZM8.56328 10.4502V30.4098C8.56328 31.4857 9.15859 31.8748 10.5304 31.8061L34.1099 30.593C35.4818 30.5243 35.637 29.7918 35.637 28.922V9.09977C35.637 8.22997 35.2488 7.74929 34.4205 7.81796L9.77979 9.09977C8.87388 9.16844 8.56328 9.58045 8.56328 10.4502ZM31.8322 11.5261C31.9875 12.1212 31.8322 12.7392 31.1593 12.8079L30.0204 13.0139V27.7547C29.0368 28.2125 28.1309 28.4871 27.3544 28.4871C26.1379 28.4871 25.8273 28.1438 24.9214 27.1367L17.493 16.8135V26.7933L19.8483 27.2511C19.8483 27.2511 19.8483 28.4642 17.9589 28.4642L12.7305 28.7389C12.5752 28.4642 12.7305 27.8005 13.2481 27.6631L14.6199 27.3198V14.1355L12.7305 13.9981C12.5752 13.403 12.9634 12.5332 14.0246 12.4645L19.6413 12.1212L27.3803 22.5588V13.3343L25.4132 13.1283C25.2579 12.3959 25.8791 11.8465 26.6297 11.7778L31.8322 11.5261ZM3.17958 1.47759L24.792 0.0813291C27.4321 -0.124676 28.1309 0.0126612 29.7875 1.08847L36.6724 5.36879C37.8112 6.10125 38.1995 6.30726 38.1995 7.10839V30.6159C38.1995 32.0808 37.6042 32.9506 35.4817 33.0879L10.401 34.4384C8.79623 34.5071 8.04562 34.3011 7.21736 33.3626L2.11838 27.5258C1.21247 26.45 0.824219 25.6488 0.824219 24.7104V3.81231C0.824219 2.59917 1.44541 1.61492 3.17958 1.47759Z" fill="black"/>
</svg>
